<?xml version="1.0" encoding="UTF-8"?>
<svg width="87px" height="86px" viewBox="0 0 87 86" version="1.1" xmlns="http://www.w3.org/2000/svg" xmlns:xlink="http://www.w3.org/1999/xlink">
    <title>delivery_box</title>
    <g id="Page-1" stroke="none" stroke-width="1" fill="none" fill-rule="evenodd">
        <g id="Custom-Preset" transform="translate(-357.000000, -329.000000)" fill-rule="nonzero">
            <g id="Group-2" transform="translate(86.000000, 284.000000)">
                <g id="delivery_box" transform="translate(271.764706, 45.617647)">
                    <g id="Group" transform="translate(0.235294, -0.617647)">
                        <g id="Path">
                            <path d="M4.07837128,0 L78.1362741,0 C79.7676226,0 81,1.33333333 81,2.88 L81,77.1288889 C81,78.7644444 79.6700963,80 78.1362741,80 L4.07837128,80 C2.43815674,80 1.20577933,78.6666667 1.20577933,77.1288889 L1.20577933,2.88 C1.20577933,1.23555556 2.43815674,0 4.07837128,0" fill="#FFCC66"></path>
                            <path d="M7.66024518,80 L7.66024518,0 L4.07837128,0 C2.43815674,0 1.20577933,1.33333333 1.20577933,2.88 L1.20577933,77.1288889 C1.20577933,78.7644444 2.53568301,80 4.07837128,80 L7.66024518,80 Z" fill="#EAAA5E"></path>
                            <polygon fill="#DDAC57" points="36.4836909 15.4222222 36.9979203 16.4533333 37.609676 17.4844444 38.2302977 16.4533333 38.7445271 15.4222222 39.3562828 16.4533333 39.9769046 17.4844444 40.491134 16.4533333 41.1028897 15.4222222 41.7146454 16.4533333 42.2288748 17.4844444 42.8494965 16.4533333 43.4612522 15.4222222 43.9754816 16.4533333 44.5961033 17.4844444 45.198993 16.4533333 45.7220884 15.4222222 46.3338441 16.4533333 46.9455998 17.4844444 46.9455998 0 35.2601795 0 35.2601795 17.4844444 35.8719352 16.4533333"></polygon>
                        </g>
                        <g transform="translate(8.400558, 47.884444)" id="Path">
                            <path d="M4.40198117,11.5111111 C3.84342163,11.5111111 3.37352233,11.9822222 3.37352233,12.5422222 L3.37352233,27.0311111 C3.37352233,27.6 3.8345556,28.0622222 4.40198117,28.0622222 L19.9086581,28.0622222 L19.9086581,11.5111111 L4.40198117,11.5111111 Z" fill="#FFFFFF"></path>
                            <g fill="#72563C">
                                <path d="M4.43744527,7.49333333 C3.8345556,7.49333333 3.33805823,6.98666667 3.33805823,6.38222222 L3.33805823,2.49777778 C3.33805823,1.89333333 3.82568958,1.39555556 4.43744527,1.39555556 C5.04033494,1.39555556 5.52796629,1.89333333 5.52796629,2.49777778 L5.52796629,6.39111111 C5.52796629,7.00444444 5.04033494,7.49333333 4.43744527,7.49333333 Z"></path>
                                <path d="M8.40942426,7.49333333 C7.80653459,7.49333333 7.31003722,6.98666667 7.31003722,6.38222222 L7.31003722,2.49777778 C7.31003722,1.89333333 7.79766856,1.39555556 8.40942426,1.39555556 C9.02117995,1.39555556 9.5088113,1.89333333 9.5088113,2.49777778 L9.5088113,6.39111111 C9.49994527,7.00444444 9.01231392,7.49333333 8.40942426,7.49333333 Z"></path>
                                <path d="M12.3814032,7.49333333 C11.7873796,7.49333333 11.2908822,6.98666667 11.2908822,6.38222222 L11.2908822,2.49777778 C11.2908822,1.89333333 11.7785136,1.39555556 12.3814032,1.39555556 C12.9842929,1.39555556 13.4807903,1.89333333 13.4807903,2.49777778 L13.4807903,6.39111111 C13.4719243,7.00444444 12.9754269,7.49333333 12.3814032,7.49333333 Z"></path>
                                <path d="M16.3445162,7.49333333 C15.7416265,7.49333333 15.2451292,6.98666667 15.2451292,6.38222222 L15.2451292,2.49777778 C15.2451292,1.89333333 15.7327605,1.39555556 16.3445162,1.39555556 C16.9562719,1.39555556 17.4439032,1.89333333 17.4439032,2.49777778 L17.4439032,6.39111111 C17.4439032,7.00444444 16.9562719,7.49333333 16.3445162,7.49333333 Z"></path>
                                <path d="M22.1783603,7.49333333 C21.5754707,7.49333333 21.0878393,6.98666667 21.0878393,6.38222222 L21.0878393,2.49777778 C21.0878393,1.89333333 21.5754707,1.39555556 22.1783603,1.39555556 C22.78125,1.39555556 23.2777474,1.89333333 23.2777474,2.49777778 L23.2777474,6.39111111 C23.2866134,7.00444444 22.790116,7.49333333 22.1783603,7.49333333 Z"></path>
                                <path d="M26.1592053,7.49333333 C25.5563157,7.49333333 25.0598183,6.98666667 25.0598183,6.38222222 L25.0598183,2.49777778 C25.0598183,1.89333333 25.5474496,1.39555556 26.1592053,1.39555556 C26.762095,1.39555556 27.2497264,1.89333333 27.2497264,2.49777778 L27.2497264,6.39111111 C27.2497264,7.00444444 26.762095,7.49333333 26.1592053,7.49333333 Z"></path>
                            </g>
                            <g transform="translate(6.723230, 13.440000)" fill="#72563C">
                                <path d="M2.28021765,4.98666667 C2.56393043,4.98666667 2.83877719,4.88888889 3.05156178,4.66666667 L3.33527457,4.37333333 L3.33527457,7.18222222 C3.33527457,7.78666667 3.83177194,8.27555556 4.44352763,8.27555556 C5.03755128,8.27555556 5.53404865,7.78666667 5.53404865,7.18222222 L5.53404865,4.37333333 L5.82662746,4.66666667 C6.24333061,5.10222222 6.94374655,5.10222222 7.3604497,4.68444444 C7.78601888,4.24888889 7.7948849,3.54666667 7.36931572,3.12888889 L5.20600574,0.951111111 C5.00208718,0.72 4.72724042,0.613333333 4.44352763,0.613333333 C4.15094882,0.613333333 3.87610206,0.746666667 3.66331748,0.951111111 L1.5,3.12888889 C1.07443832,3.54666667 1.07443832,4.24888889 1.50887352,4.68444444 C1.72165811,4.88888889 1.99650487,4.98666667 2.28021765,4.98666667 Z"></path>
                                <path d="M6.9614786,9.71555556 L1.91671064,9.71555556 C1.31382098,9.71555556 0.817323605,10.2044444 0.817323605,10.8088889 C0.817323605,11.4133333 1.30495495,11.9022222 1.91671064,11.9022222 L6.9614786,11.9022222 C7.56436826,11.9022222 8.06086564,11.4133333 8.06086564,10.8088889 C8.06086564,10.2044444 7.56436826,9.71555556 6.9614786,9.71555556 Z"></path>
                            </g>
                            <path d="M26.0705451,11.5111111 L19.1373139,11.5111111 L19.1373139,28.0622222 L26.0705451,28.0622222 C26.6291046,28.0622222 27.0901379,27.6 27.0901379,27.0311111 L27.0901379,12.5422222 C27.0901379,11.9555556 26.6291046,11.5111111 26.0705451,11.5111111 Z" fill="#F24A0C"></path>
                        </g>
                    </g>
                    <g id="Group" transform="translate(49.235294, 48.382353)">
                        <circle id="Oval" fill="#FFFFFF" cx="18" cy="18" r="18"></circle>
                        <path d="M27.036,33.57 C29.799,31.968 31.977,29.79 33.579,27.027 C35.181,24.273 36,21.249 36,18 C36,14.733 35.19,11.727 33.57,8.964 C31.959,6.201 29.79,4.023 27.027,2.403 C24.273,0.801 21.249,0 18,0 C14.733,0 11.718,0.801 8.964,2.412 C6.201,4.032 4.005,6.201 2.412,8.973 C0.792,11.745 0,14.733 0,18 C0,21.249 0.801,24.273 2.412,27.036 C4.032,29.799 6.21,31.977 8.973,33.597 C11.718,35.19 14.733,36 18,36 C21.249,36 24.273,35.19 27.036,33.57 Z M16.947,29.691 L14.814,27.558 L6.327,19.071 C6.048,18.792 5.904,18.441 5.904,18.018 C5.904,17.595 6.048,17.244 6.327,16.965 L8.451,14.841 C8.757,14.544 9.108,14.4 9.513,14.4 C9.918,14.4 10.269,14.553 10.557,14.841 L14.985,19.269 L14.985,7.497 C14.985,7.092 15.138,6.741 15.435,6.444 C15.732,6.156 16.083,5.994 16.488,5.994 L19.485,5.994 C19.89,5.994 20.241,6.156 20.538,6.444 C20.826,6.741 20.988,7.092 20.988,7.497 L20.988,19.269 L25.416,14.841 C25.695,14.571 26.046,14.418 26.469,14.418 C26.892,14.418 27.243,14.562 27.54,14.841 L29.664,16.956 C29.943,17.235 30.087,17.586 30.087,18.009 C30.087,18.441 29.943,18.783 29.664,19.062 L21.186,27.558 L19.053,29.691 C18.774,29.97 18.423,30.114 18,30.114 C17.577,30.114 17.226,29.97 16.947,29.691 Z" id="Shape" fill="#3ABA68"></path>
                    </g>
                </g>
            </g>
        </g>
    </g>
</svg>