<?xml version="1.0" encoding="utf-8"?>
<!-- Generator: Adobe Illustrator 16.0.4, SVG Export Plug-In . SVG Version: 6.00 Build 0)  -->
<!DOCTYPE svg PUBLIC "-//W3C//DTD SVG 1.1//EN" "http://www.w3.org/Graphics/SVG/1.1/DTD/svg11.dtd">
<svg version="1.1" id="圖層_1" xmlns="http://www.w3.org/2000/svg" xmlns:xlink="http://www.w3.org/1999/xlink" x="0px" y="0px"
	 width="10px" height="10px" viewBox="0 0 10 10" enable-background="new 0 0 10 10" xml:space="preserve">
<g>
	<g>
		<g>
			<path fill="#A6A6A6" d="M9.996,8.844c0,0.28-0.233,0.515-0.512,0.515H1.793c-0.279,0-0.51-0.234-0.51-0.515V1.157
				c0-0.281,0.231-0.515,0.513-0.515h7.69C9.766,0.643,10,0.876,10,1.157v7.687H9.996z"/>
		</g>
		<g>
			<path fill="#666666" d="M9.472,8.291c0,0.296-0.245,0.538-0.539,0.538H2.345c-0.295,0-0.537-0.242-0.537-0.538V1.708
				c0-0.292,0.242-0.537,0.537-0.537h6.588c0.294,0,0.539,0.245,0.539,0.537V8.291z"/>
			<path fill="none" stroke="#949494" stroke-width="0.0912" stroke-miterlimit="10" d="M9.472,8.291
				c0,0.296-0.245,0.538-0.539,0.538H2.345c-0.295,0-0.537-0.242-0.537-0.538V1.708c0-0.292,0.242-0.537,0.537-0.537h6.588
				c0.294,0,0.539,0.245,0.539,0.537V8.291z"/>
		</g>
		<g>
			<path fill="#999999" d="M9.461,8.324c0,0.299-0.241,0.543-0.539,0.543L6.182,9.84c-0.299,0-0.543-0.24-0.543-0.539V0.7
				c0-0.3,0.244-0.54,0.543-0.54l2.74,0.975c0.298,0,0.539,0.244,0.539,0.541V8.324L9.461,8.324z"/>
		</g>
		<g>
			<path fill="#D9D9D9" d="M9.543,8.324c0,0.299-0.244,0.543-0.542,0.543L6.264,9.84c-0.301,0-0.545-0.24-0.545-0.539V0.7
				c0-0.3,0.244-0.54,0.545-0.54l2.74,0.975c0.295,0,0.541,0.244,0.541,0.541L9.543,8.324L9.543,8.324z"/>
		</g>
		<g>
			<path fill="#808080" d="M9.713,6.742c0,0.107-0.088,0.192-0.194,0.192H9.423c-0.109,0-0.192-0.085-0.192-0.192V3.258
				c0-0.108,0.085-0.192,0.192-0.192h0.096c0.107,0,0.194,0.085,0.194,0.192V6.742z"/>
		</g>
	</g>
	<g>
		<g id="forward_1_">
			<polygon fill="#91DC5A" points="2.375,6.188 2.375,7.375 0,5 2.375,2.625 2.375,3.812 4.751,3.812 4.751,6.188 			"/>
		</g>
	</g>
</g>
</svg>
