<?xml version="1.0" encoding="UTF-8"?>
<svg width="10px" height="10px" viewBox="0 0 10 10" version="1.1" xmlns="http://www.w3.org/2000/svg" xmlns:xlink="http://www.w3.org/1999/xlink">
    <!-- Generator: Sketch 54 (76480) - https://sketchapp.com -->
    <title>locker_put</title>
    <desc>Created with Sketch.</desc>
    <g id="Page-1" stroke="none" stroke-width="1" fill="none" fill-rule="evenodd">
        <g id="locker_put">
            <g id="Group" transform="translate(1.000000, 0.000000)">
                <path d="M8.996,8.844 C8.996,9.125 8.763,9.359 8.483,9.359 L0.793,9.359 C0.514,9.359 0.283,9.126 0.283,8.844 L0.283,1.157 C0.283,0.876 0.514,0.642 0.797,0.642 L8.485,0.642 C8.766,0.643 9,0.876 9,1.157 L9,8.844 L8.996,8.844 L8.996,8.844 Z" id="Path" fill="#A6A6A6" fill-rule="nonzero"></path>
                <g transform="translate(0.000000, 1.000000)" id="Path">
                    <path d="M8.472,7.291 C8.472,7.588 8.228,7.83 7.933,7.83 L1.345,7.83 C1.05,7.83 0.808,7.588 0.808,7.291 L0.808,0.709 C0.808,0.416 1.05,0.172 1.345,0.172 L7.933,0.172 C8.228,0.172 8.472,0.416 8.472,0.709 L8.472,7.291 Z" fill="#666666" fill-rule="nonzero"></path>
                    <path d="M8.472,7.291 C8.472,7.588 8.228,7.83 7.933,7.83 L1.345,7.83 C1.05,7.83 0.808,7.588 0.808,7.291 L0.808,0.709 C0.808,0.416 1.05,0.172 1.345,0.172 L7.933,0.172 C8.228,0.172 8.472,0.416 8.472,0.709 L8.472,7.291 Z" stroke="#949494" stroke-width="0.0912"></path>
                </g>
                <path d="M8.461,8.325 C8.461,8.623 8.22,8.867 7.922,8.867 L5.182,9.84 C4.884,9.84 4.639,9.601 4.639,9.301 L4.639,0.7 C4.639,0.4 4.884,0.16 5.182,0.16 L7.922,1.135 C8.22,1.135 8.461,1.38 8.461,1.676 L8.461,8.325 L8.461,8.325 Z" id="Path" fill="#999999" fill-rule="nonzero"></path>
                <path d="M8.543,8.325 C8.543,8.623 8.3,8.867 8.001,8.867 L5.263,9.84 C4.962,9.84 4.719,9.601 4.719,9.301 L4.719,0.7 C4.719,0.4 4.962,0.16 5.263,0.16 L8.005,1.135 C8.3,1.135 8.545,1.38 8.545,1.676 L8.543,8.325 L8.543,8.325 Z" id="Path" fill="#D9D9D9" fill-rule="nonzero"></path>
                <path d="M8.713,6.742 C8.713,6.849 8.625,6.934 8.519,6.934 L8.423,6.934 C8.314,6.934 8.232,6.849 8.232,6.742 L8.232,3.258 C8.232,3.15 8.316,3.067 8.423,3.067 L8.519,3.067 C8.627,3.067 8.713,3.152 8.713,3.258 L8.713,6.742 L8.713,6.742 Z" id="Path" fill="#808080" fill-rule="nonzero"></path>
            </g>
            <g id="forward" transform="translate(0.000000, 2.000000)" fill="#F7B500" fill-rule="nonzero">
                <polygon id="Path" points="2.375 1.812 2.375 0.625 4.751 3.001 2.375 5.376 2.375 4.188 0 4.188 0 1.812"></polygon>
            </g>
        </g>
    </g>
</svg>