<?xml version="1.0" encoding="UTF-8"?>
<svg width="86px" height="85px" viewBox="0 0 86 85" version="1.1" xmlns="http://www.w3.org/2000/svg" xmlns:xlink="http://www.w3.org/1999/xlink">
    <title>pickup_box</title>
    <g id="Page-1" stroke="none" stroke-width="1" fill="none" fill-rule="evenodd">
        <g id="Custom-Preset" transform="translate(-135.000000, -330.000000)" fill-rule="nonzero">
            <g id="Group-2" transform="translate(86.000000, 284.000000)">
                <g id="pickup_box" transform="translate(49.500000, 46.588235)">
                    <g id="Group" transform="translate(5.500000, -0.588235)">
                        <g id="Path">
                            <path d="M4.02802102,0 L77.1716287,0 C78.7828371,0 80,1.31666667 80,2.844 L80,76.1647778 C80,77.7798889 78.6865149,79 77.1716287,79 L4.02802102,79 C2.40805604,79 1.19089317,77.6833333 1.19089317,76.1647778 L1.19089317,2.844 C1.19089317,1.22011111 2.40805604,0 4.02802102,0" fill="#FFCC66"></path>
                            <path d="M7.56567426,79 L7.56567426,0 L4.02802102,0 C2.40805604,0 1.19089317,1.31666667 1.19089317,2.844 L1.19089317,76.1647778 C1.19089317,77.7798889 2.50437828,79 4.02802102,79 L7.56567426,79 Z" fill="#EAAA5E"></path>
                            <polygon fill="#DDAC57" points="36.033275 15.2294444 36.5411559 16.2476667 37.145359 17.2658889 37.7583187 16.2476667 38.2661996 15.2294444 38.8704028 16.2476667 39.4833625 17.2658889 39.9912434 16.2476667 40.5954466 15.2294444 41.1996497 16.2476667 41.7075306 17.2658889 42.3204904 16.2476667 42.9246935 15.2294444 43.4325744 16.2476667 44.0455342 17.2658889 44.6409807 16.2476667 45.1576182 15.2294444 45.7618214 16.2476667 46.3660245 17.2658889 46.3660245 0 34.8248687 0 34.8248687 17.2658889 35.4290718 16.2476667"></polygon>
                        </g>
                        <g transform="translate(8.296848, 47.285889)" id="Path">
                            <path d="M4.34763573,11.3672222 C3.79597198,11.3672222 3.33187391,11.8324444 3.33187391,12.3854444 L3.33187391,26.6932222 C3.33187391,27.255 3.78721541,27.7114444 4.34763573,27.7114444 L19.6628722,27.7114444 L19.6628722,11.3672222 L4.34763573,11.3672222 Z" fill="#FFFFFF"></path>
                            <g fill="#72563C">
                                <path d="M4.382662,7.39966667 C3.78721541,7.39966667 3.29684764,6.89933333 3.29684764,6.30244444 L3.29684764,2.46655556 C3.29684764,1.86966667 3.77845884,1.37811111 4.382662,1.37811111 C4.97810858,1.37811111 5.45971979,1.86966667 5.45971979,2.46655556 L5.45971979,6.31122222 C5.45971979,6.91688889 4.97810858,7.39966667 4.382662,7.39966667 Z"></path>
                                <path d="M8.3056042,7.39966667 C7.71015762,7.39966667 7.21978984,6.89933333 7.21978984,6.30244444 L7.21978984,2.46655556 C7.21978984,1.86966667 7.70140105,1.37811111 8.3056042,1.37811111 C8.90980736,1.37811111 9.39141856,1.86966667 9.39141856,2.46655556 L9.39141856,6.31122222 C9.382662,6.91688889 8.90105079,7.39966667 8.3056042,7.39966667 Z"></path>
                                <path d="M12.2285464,7.39966667 C11.6418564,7.39966667 11.1514886,6.89933333 11.1514886,6.30244444 L11.1514886,2.46655556 C11.1514886,1.86966667 11.6330998,1.37811111 12.2285464,1.37811111 C12.823993,1.37811111 13.3143608,1.86966667 13.3143608,2.46655556 L13.3143608,6.31122222 C13.3056042,6.91688889 12.8152364,7.39966667 12.2285464,7.39966667 Z"></path>
                                <path d="M16.142732,7.39966667 C15.5472855,7.39966667 15.0569177,6.89933333 15.0569177,6.30244444 L15.0569177,2.46655556 C15.0569177,1.86966667 15.5385289,1.37811111 16.142732,1.37811111 C16.7469352,1.37811111 17.2285464,1.86966667 17.2285464,2.46655556 L17.2285464,6.31122222 C17.2285464,6.91688889 16.7469352,7.39966667 16.142732,7.39966667 Z"></path>
                                <path d="M21.9045534,7.39966667 C21.3091068,7.39966667 20.8274956,6.89933333 20.8274956,6.30244444 L20.8274956,2.46655556 C20.8274956,1.86966667 21.3091068,1.37811111 21.9045534,1.37811111 C22.5,1.37811111 22.9903678,1.86966667 22.9903678,2.46655556 L22.9903678,6.31122222 C22.9991243,6.91688889 22.5087566,7.39966667 21.9045534,7.39966667 Z"></path>
                                <path d="M25.8362522,7.39966667 C25.2408056,7.39966667 24.7504378,6.89933333 24.7504378,6.30244444 L24.7504378,2.46655556 C24.7504378,1.86966667 25.232049,1.37811111 25.8362522,1.37811111 C26.4316988,1.37811111 26.91331,1.86966667 26.91331,2.46655556 L26.91331,6.31122222 C26.91331,6.91688889 26.4316988,7.39966667 25.8362522,7.39966667 Z"></path>
                            </g>
                            <g transform="translate(6.640227, 13.272000)" fill="#72563C">
                                <path d="M2.25206681,4.92433333 C2.53227697,4.92433333 2.80373056,4.82777778 3.01388818,4.60833333 L3.29409834,4.31866667 L3.29409834,7.09244444 C3.29409834,7.68933333 3.78446611,8.17211111 4.38866927,8.17211111 C4.97535928,8.17211111 5.46572706,7.68933333 5.46572706,7.09244444 L5.46572706,4.31866667 L5.75469379,4.60833333 C6.16625245,5.03844444 6.85802128,5.03844444 7.26957995,4.62588889 C7.68989519,4.19577778 7.69865175,3.50233333 7.27833652,3.08977778 L5.14173407,0.939222222 C4.94033301,0.711 4.66887942,0.605666667 4.38866927,0.605666667 C4.09970254,0.605666667 3.82824895,0.737333333 3.61809133,0.939222222 L1.48148888,3.08977778 C1.06117365,3.50233333 1.06117365,4.19577778 1.49024545,4.62588889 C1.70040307,4.82777778 1.97185666,4.92433333 2.25206681,4.92433333 Z"></path>
                                <path d="M6.87553442,9.59411111 L1.89304755,9.59411111 C1.29760097,9.59411111 0.80723319,10.0768889 0.80723319,10.6737778 C0.80723319,11.2706667 1.2888444,11.7534444 1.89304755,11.7534444 L6.87553442,11.7534444 C7.470981,11.7534444 7.96134878,11.2706667 7.96134878,10.6737778 C7.96134878,10.0768889 7.470981,9.59411111 6.87553442,9.59411111 Z"></path>
                            </g>
                            <path d="M25.7486865,11.3672222 L18.9010508,11.3672222 L18.9010508,27.7114444 L25.7486865,27.7114444 C26.3003503,27.7114444 26.7556918,27.255 26.7556918,26.6932222 L26.7556918,12.3854444 C26.7556918,11.8061111 26.3003503,11.3672222 25.7486865,11.3672222 Z" fill="#F24A0C"></path>
                        </g>
                    </g>
                    <g id="Group" transform="translate(-0.500000, 47.411765)">
                        <circle id="Oval" fill="#FFFFFF" cx="18" cy="18" r="18"></circle>
                        <path d="M8.964,2.43 C6.201,4.023 4.023,6.201 2.43,8.964 C0.819,11.727 0,14.751 0,18 C0,21.267 0.81,24.273 2.43,27.036 C4.041,29.799 6.21,31.977 8.973,33.597 C11.727,35.199 14.751,36 18,36 C21.267,36 24.282,35.199 27.036,33.588 C29.799,31.959 31.995,29.79 33.597,27.027 C35.208,24.255 36,21.267 36,18 C36,14.751 35.199,11.727 33.588,8.964 C31.977,6.201 29.799,4.023 27.036,2.43 C24.282,0.81 21.267,0 18,0 C14.751,0 11.727,0.81 8.964,2.43 Z M19.053,6.309 L21.177,8.433 L29.664,16.92 C29.943,17.199 30.087,17.55 30.087,17.973 C30.087,18.396 29.952,18.756 29.673,19.035 L27.549,21.168 C27.243,21.465 26.892,21.618 26.487,21.618 C26.082,21.618 25.731,21.465 25.443,21.168 L21.006,16.731 L21.006,28.503 C21.006,28.908 20.844,29.259 20.556,29.556 C20.259,29.844 19.908,30.006 19.503,30.006 L16.506,30.006 C16.101,30.006 15.75,29.844 15.453,29.556 C15.156,29.259 15.003,28.908 15.003,28.503 L15.003,16.731 L10.575,21.168 C10.305,21.447 9.954,21.591 9.531,21.591 C9.108,21.591 8.757,21.447 8.451,21.168 L6.327,19.035 C6.048,18.756 5.904,18.405 5.904,17.982 C5.904,17.55 6.048,17.208 6.327,16.929 L14.814,8.442 L16.929,6.327 C17.226,6.03 17.577,5.886 18,5.886 C18.423,5.886 18.774,6.03 19.053,6.309 Z" id="Shape" fill="#3ABA68"></path>
                    </g>
                </g>
            </g>
        </g>
    </g>
</svg>